{"title":"Heksje Lilly, Reis naar Mandolan 2011 Dutch Klam","uid":6646718,"size":1576559242,"categoryP":"video","categoryS":"movies","magnet":"?xt=urn:btih:40e76f4095bc34974e8b0ad56da1754a17b4e39c&amp;dn=Heksje+Lilly%2C+Reis+naar+Mandolan+2011+Dutch+Klam&amp;tr=udp%3A%2F%2Ftracker.openbittorrent.com%3A80&amp;tr=udp%3A%2F%2Fopen.demonii.com%3A1337&amp;tr=udp%3A%2F%2Ftracker.coppersurfer.tk%3A6969&amp;tr=udp%3A%2F%2Fexodus.desync.com%3A6969","seeders":0,"leechers":0,"uploader":"Klambake","files":-1,"time":1314978028,"description":"Nederlands gesproken,\nHeksje Lilly ontvangt een bijzondere brief. De Koninklijke Troon van Mandolan is betoverd en ze hebben daar dringend de hulp van Heksje Lilly nodig. Natuurlijk wil Lilly graag helpen en ze vertrekt samen met het draakje Hector naar Mandolan. Daar maakt ze kennis met riksjachauffeur Musa, grootvizier Guliman en een heleboel andere bijzondere mensen en wezens. Maar zal het haar lukken om de troon te bevrijden van de toverspreuk?\n\nDutch Spoken,\nLilli is traveling to India, to solve a mystery.\n\n------------------ Dutch Friends ------------------\nYou can find my Friends at: http://www.Film-Test.nl \n------ They got my dutchs subs ---- and more ------\n\nGeneral:\n\nComplete name                    : Heksje Lilly\\Reis naar Mandolan.avi\nFormat                           : AVI\nFormat/Info                      : Audio Video Interleave\nFile size                        : 1.47 GiB\nDuration                         : 1h 27mn\nOverall bit rate                 : 2 402 Kbps\n\nVideo:\n\nFormat                           : MPEG-4 Visual\nFormat profile                   : Simple@L3\nFormat settings, BVOP            : No\nFormat settings, QPel            : No\nFormat settings, GMC             : No warppoints\nFormat settings, Matrix          : Default (H.263)\nCodec ID                         : XVID\nCodec ID/Hint                    : XviD\nDuration                         : 1h 27mn\nBit rate                         : 1 943 Kbps\nWidth                            : 720 pixels\nHeight                           : 304 pixels\nDisplay aspect ratio             : 2.35:1\nFrame rate                       : 25.000 fps\nColor space                      : YUV\nChroma subsampling               : 4:2:0\nBit depth                        : 8 bits\nScan type                        : Progressive\nBits/(Pixel*Frame)               : 0.355\nStream size                      : 1.19 GiB (81%)\nWriting library                  : XviD 1.1.2 (UTC 2006-11-01)\n\nAudio:\n\nFormat                           : AC-3\nFormat/Info                      : Audio Coding 3\nMode extension                   : CM (complete main)\nCodec ID                         : 2000\nDuration                         : 1h 27mn\nBit rate mode                    : Constant\nBit rate                         : 448 Kbps\nChannel(s)                       : 6 channels\nChannel positions                : Front: L C R, Side: L R, LFE\nSampling rate                    : 48.0 KHz\nBit depth                        : 16 bits\nStream size                      : 280 MiB (19%)\nAlignment                        : Aligned on interleaves\nInterleave, duration             : 32 ms (0.80 video frame)\nInterleave, preload duration     : 64 ms\n\n","torrent":{"xt":"urn:btih:40e76f4095bc34974e8b0ad56da1754a17b4e39c","amp;dn":"Heksje+Lilly%2C+Reis+naar+Mandolan+2011+Dutch+Klam","amp;tr":["udp%3A%2F%2Ftracker.openbittorrent.com%3A80","udp%3A%2F%2Fopen.demonii.com%3A1337","udp%3A%2F%2Ftracker.coppersurfer.tk%3A6969","udp%3A%2F%2Fexodus.desync.com%3A6969"],"infoHash":"40e76f4095bc34974e8b0ad56da1754a17b4e39c","infoHashBuffer":{"type":"Buffer","data":[64,231,111,64,149,188,52,151,78,139,10,213,109,161,117,74,23,180,227,156]},"announce":[],"urlList":[]}}